<svg width="212" height="57" viewBox="0 0 212 57" fill="none" xmlns="http://www.w3.org/2000/svg">
<g clip-path="url(#clip0)">
<path d="M210.594 50.2689C210.594 53.2849 207.901 55.7277 204.57 55.7277H7.43022C4.1008 55.7277 1.39844 53.2849 1.39844 50.2689V6.73682C1.39844 3.72237 4.10093 1.2709 7.43022 1.2709H204.568C207.9 1.2709 210.592 3.72237 210.592 6.73682L210.594 50.2689Z" fill="white"/>
<path d="M204.57 56.9989H7.4303C3.33413 56.9989 0 53.9816 0 50.2702V6.73953C0 3.02528 3.33413 0.00370026 7.4303 0.00370026H204.568C208.659 0.00370026 211.998 3.02528 211.998 6.73953V50.2702C212.001 53.9816 208.663 56.9989 204.57 56.9989V56.9989Z" fill="#A6A6A6"/>
<path d="M210.594 50.2689C210.594 53.2849 207.901 55.7277 204.57 55.7277H7.43022C4.1008 55.7277 1.39844 53.2849 1.39844 50.2689V6.73682C1.39844 3.72237 4.10093 1.2709 7.43022 1.2709H204.568C207.9 1.2709 210.592 3.72237 210.592 6.73682L210.594 50.2689Z" fill="black"/>
<path d="M47.3377 28.2C47.2922 23.6063 51.4842 21.3715 51.6759 21.2675C49.3018 18.1276 45.6221 17.6986 44.329 17.6644C41.2384 17.3694 38.2405 19.3419 36.6661 19.3419C35.0604 19.3419 32.636 17.6929 30.023 17.7414C26.6606 17.7884 23.5152 19.5543 21.7898 22.2965C18.2296 27.8879 20.8848 36.1045 24.2961 40.6241C26.0023 42.8389 27.9963 45.3089 30.6059 45.222C33.1592 45.1279 34.1129 43.7468 37.1941 43.7468C40.2468 43.7468 41.1425 45.222 43.8041 45.1664C46.5444 45.1279 48.2695 42.943 49.9162 40.7096C51.8881 38.174 52.6799 35.6741 52.7114 35.5458C52.6485 35.5259 47.3912 33.7044 47.3377 28.2V28.2ZM42.3098 14.6913C43.6829 13.1334 44.6227 11.0141 44.3618 8.86333C42.3741 8.94315 39.8886 10.1104 38.4571 11.6341C37.1907 12.9767 36.0594 15.1773 36.3516 17.2468C38.5845 17.3979 40.8769 16.2249 42.3098 14.6913V14.6913Z" fill="white"/>
<path d="M204.57 0.00238037H98.9758L140.335 56.9976H204.57C208.661 56.9976 212 53.9803 212 50.2646V6.73821C212.001 3.02396 208.663 0.00238037 204.57 0.00238037Z" fill="url(#paint0_linear)"/>
<path d="M84.3195 44.9042H80.7513L78.7967 39.3328H72.0026L70.1407 44.9042H66.6669L73.3995 25.9367H77.557L84.3195 44.9042ZM78.2076 36.9953L76.44 32.0425C76.253 31.5365 75.9011 30.345 75.3856 28.4694H75.3228C75.1154 29.2761 74.7839 30.4676 74.3298 32.0425L72.5921 36.9953H78.2076ZM101.6 37.8975C101.6 40.2236 100.904 42.0622 99.5101 43.412C98.2626 44.6134 96.7119 45.2136 94.8624 45.2136C92.8654 45.2136 91.4293 44.5678 90.5573 43.2738V50.45H87.2074V35.7226C87.2074 34.2615 87.1651 32.7637 87.0834 31.2273H90.0295L90.2164 33.3951H90.2791C91.3963 31.7617 93.0916 30.9449 95.3668 30.9449C97.1454 30.9449 98.6302 31.582 99.818 32.8577C101.004 34.1362 101.6 35.8152 101.6 37.8975V37.8975ZM98.1871 38.0087C98.1871 36.6775 97.8571 35.58 97.1941 34.7149C96.4698 33.8156 95.4972 33.3653 94.2779 33.3653C93.4514 33.3653 92.7004 33.616 92.0295 34.1106C91.357 34.6094 90.9171 35.2608 90.7114 36.0675C90.6077 36.4438 90.5558 36.7502 90.5558 36.9926V39.2743C90.5558 40.2678 90.8921 41.1074 91.5645 41.7943C92.237 42.4785 93.1106 42.8218 94.1853 42.8218C95.4471 42.8218 96.4292 42.3787 97.1314 41.4992C97.8351 40.617 98.1871 39.4539 98.1871 38.0087V38.0087ZM118.941 37.8975C118.941 40.2236 118.245 42.0622 116.852 43.412C115.602 44.6134 114.053 45.2136 112.202 45.2136C110.205 45.2136 108.769 44.5678 107.897 43.2738V50.45H104.547V35.7226C104.547 34.2615 104.505 32.7637 104.423 31.2273H107.369L107.556 33.3951H107.619C108.735 31.7617 110.43 30.9449 112.707 30.9449C114.484 30.9449 115.968 31.582 117.16 32.8577C118.344 34.1362 118.941 35.8152 118.941 37.8975ZM115.527 38.0087C115.527 36.6775 115.196 35.58 114.532 34.7149C113.808 33.8156 112.839 33.3653 111.619 33.3653C110.793 33.3653 110.042 33.616 109.368 34.1106C108.695 34.6094 108.257 35.2608 108.051 36.0675C107.949 36.4438 107.894 36.7502 107.894 36.9926V39.2743C107.894 40.2678 108.232 41.1074 108.901 41.7943C109.574 42.4771 110.447 42.8218 111.525 42.8218C112.788 42.8218 113.77 42.3787 114.471 41.4992C115.175 40.617 115.527 39.4539 115.527 38.0087V38.0087ZM138.33 39.5836C138.33 41.1985 137.708 42.5111 136.472 43.5245C135.111 44.6305 133.211 45.1849 130.776 45.1849C128.526 45.1849 126.722 44.7916 125.361 44.0034L126.136 41.4707C127.605 42.2603 129.219 42.6537 130.975 42.6537C132.239 42.6537 133.221 42.3943 133.921 41.8797C134.624 41.3638 134.979 40.674 134.979 39.8131C134.979 39.0421 134.685 38.3964 134.108 37.8706C133.529 37.3461 132.57 36.8572 131.224 36.4082C127.563 35.1697 125.731 33.3582 125.731 30.9751C125.731 29.4187 126.378 28.1445 127.67 27.1483C128.961 26.1534 130.674 25.6561 132.804 25.6561C134.707 25.6561 136.292 25.9568 137.551 26.5569L136.71 29.0339C135.526 28.4524 134.188 28.1616 132.693 28.1616C131.511 28.1616 130.584 28.4253 129.921 28.9498C129.363 29.4187 129.08 29.9904 129.08 30.6687C129.08 31.4171 129.403 32.0385 130.044 32.5259C130.6 32.9748 131.615 33.4638 133.082 33.9883C134.883 34.6467 136.206 35.4135 137.053 36.2943C137.906 37.1749 138.33 38.2738 138.33 39.5836V39.5836ZM149.434 33.5077H145.742V40.148C145.742 41.837 146.392 42.6793 147.696 42.6793C148.295 42.6793 148.791 42.6336 149.184 42.5382L149.277 44.8457C148.617 45.0696 147.748 45.1821 146.672 45.1821C145.349 45.1821 144.315 44.8158 143.569 44.0832C142.825 43.3506 142.452 42.1235 142.452 40.396V33.502H140.252V31.2216H142.452V28.7174L145.742 27.8166V31.2216H149.434V33.5077V33.5077ZM166.061 37.9531C166.061 40.0553 165.398 41.7813 164.075 43.1311C162.69 44.5208 160.849 45.2135 158.553 45.2135C156.338 45.2135 154.577 44.5479 153.263 43.2181C151.949 41.8853 151.293 40.2065 151.293 38.1812C151.293 36.0617 151.971 34.3258 153.324 32.9761C154.68 31.6249 156.506 30.9495 158.802 30.9495C161.014 30.9495 162.791 31.6164 164.136 32.9476C165.421 34.2389 166.061 35.9064 166.061 37.9531V37.9531ZM162.588 38.023C162.588 36.77 162.29 35.6954 161.691 34.796C160.989 33.71 159.983 33.1671 158.681 33.1671C157.339 33.1671 156.31 33.71 155.609 34.796C155.009 35.6954 154.71 36.7886 154.71 38.0799C154.71 39.3342 155.009 40.4116 155.609 41.3082C156.333 42.3943 157.343 42.9373 158.652 42.9373C159.933 42.9373 160.937 42.3829 161.663 41.2811C162.279 40.3604 162.588 39.2786 162.588 38.023V38.023ZM176.954 33.8996C176.622 33.8439 176.267 33.8154 175.898 33.8154C174.72 33.8154 173.808 34.2175 173.168 35.0269C172.611 35.7396 172.331 36.6403 172.331 37.7278V44.9041H168.982V35.5344C168.982 33.9595 168.949 32.5228 168.884 31.2287H171.802L171.925 33.8454H172.017C172.372 32.9461 172.929 32.2206 173.692 31.6775C174.439 31.1888 175.245 30.9449 176.114 30.9449C176.423 30.9449 176.703 30.9649 176.951 31.0006L176.954 33.8996V33.8996ZM191.936 37.4186C191.936 37.9631 191.896 38.4219 191.813 38.7969H181.763C181.801 40.148 182.288 41.1828 183.221 41.8954C184.068 42.5312 185.164 42.8504 186.508 42.8504C187.996 42.8504 189.354 42.6366 190.575 42.2047L191.1 44.3127C189.673 44.8771 187.989 45.1579 186.045 45.1579C183.707 45.1579 181.872 44.5335 180.536 43.2879C179.204 42.0408 178.536 40.3647 178.536 38.2653C178.536 36.2042 179.157 34.4869 180.4 33.1172C181.701 31.6548 183.459 30.9236 185.671 30.9236C187.844 30.9236 189.489 31.6547 190.606 33.1172C191.491 34.2759 191.936 35.7126 191.936 37.4186V37.4186ZM188.741 36.6305C188.765 35.7283 188.545 34.9515 188.091 34.2944C187.511 33.4478 186.618 33.026 185.423 33.026C184.328 33.026 183.435 33.4379 182.756 34.2645C182.199 34.9216 181.867 35.7112 181.765 36.6276L188.741 36.6305Z" fill="white"/>
<path d="M76.5923 19.1481H74.8371L73.8771 16.4101H70.5382L69.6222 19.1481H67.9143L71.2233 9.82538H73.2659L76.5923 19.1481ZM73.588 15.2614L72.7191 12.827C72.628 12.5776 72.4598 11.9975 72.2006 11.0711H72.1692C72.0623 11.4716 71.9099 12.0531 71.6805 12.827L70.8273 15.2614H73.588ZM84.8662 12.4265L82.06 19.1481H80.4588L77.7439 12.4265H79.513L80.7794 15.9811C80.9931 16.5755 81.1754 17.1427 81.3121 17.6815H81.3577C81.4803 17.1983 81.6625 16.631 81.8903 15.9811L83.141 12.4265H84.8662V12.4265ZM90.84 19.1481L90.7174 18.374H90.6717C90.1689 18.9969 89.4367 19.3005 88.5067 19.3005C87.1805 19.3005 86.2346 18.4567 86.2346 17.3222C86.2346 15.6632 87.8199 14.8052 90.5649 14.8052V14.6812C90.5649 13.7961 90.0464 13.3528 89.0251 13.3528C88.2928 13.3528 87.6518 13.5196 87.0893 13.8516L86.7545 12.8696C87.4412 12.482 88.2945 12.2881 89.3015 12.2881C91.2372 12.2881 92.2145 13.2146 92.2145 15.0688V17.5445C92.2145 18.223 92.2459 18.7489 92.3214 19.1494L90.84 19.1481V19.1481ZM90.6106 15.8001C88.7802 15.8001 87.8656 16.202 87.8656 17.1555C87.8656 17.8611 88.3386 18.206 88.9938 18.206C89.8327 18.206 90.6106 17.6259 90.6106 16.8377V15.8001ZM95.882 11.3191C95.3336 11.3191 94.9063 10.9314 94.9063 10.4197C94.9063 9.90804 95.3479 9.53462 95.9134 9.53462C96.4775 9.53462 96.9347 9.90804 96.9191 10.4197C96.9191 10.9599 96.4933 11.3191 95.882 11.3191ZM96.7367 19.1481H95.0901V12.4265H96.7367V19.1481ZM101.309 19.1481H99.6624V9.34221H101.309V19.1481ZM108.307 19.1481L108.185 18.374H108.139C107.636 18.9969 106.904 19.3005 105.974 19.3005C104.648 19.3005 103.702 18.4567 103.702 17.3222C103.702 15.6632 105.287 14.8052 108.032 14.8052V14.6812C108.032 13.7961 107.514 13.3528 106.492 13.3528C105.76 13.3528 105.119 13.5196 104.557 13.8516L104.22 12.8682C104.907 12.4805 105.76 12.2867 106.767 12.2867C108.703 12.2867 109.68 13.2131 109.68 15.0674V17.5431C109.68 18.2215 109.713 18.7475 109.786 19.148H108.307V19.1481ZM108.078 15.8001C106.247 15.8001 105.333 16.202 105.333 17.1555C105.333 17.8611 105.806 18.206 106.461 18.206C107.3 18.206 108.078 17.6259 108.078 16.8377V15.8001V15.8001ZM116.352 19.3006C115.301 19.3006 114.525 18.8987 114.022 18.1105H113.989L113.894 19.1481H112.491C112.537 18.6093 112.553 17.9993 112.553 17.3366V9.34221H114.201V13.4099H114.232C114.721 12.6631 115.511 12.2897 116.595 12.2897C118.38 12.2897 119.631 13.6736 119.631 15.6918C119.631 17.7784 118.242 19.3006 116.352 19.3006V19.3006ZM116.017 13.4627C115.07 13.4627 114.203 14.2095 114.203 15.2471V16.423C114.203 17.3494 114.982 18.1105 115.989 18.1105C117.222 18.1105 117.956 17.1983 117.956 15.746C117.954 14.3905 117.191 13.4627 116.017 13.4627V13.4627ZM123.711 19.1481H122.066V9.34221H123.711V19.1481ZM132.675 16.1465H127.732C127.765 17.4192 128.692 18.1376 130.065 18.1376C130.798 18.1376 131.469 18.0264 132.062 17.8197L132.319 18.8573C131.618 19.1338 130.794 19.2721 129.834 19.2721C127.515 19.2721 126.144 17.9437 126.144 15.8842C126.144 13.8233 127.548 12.274 129.649 12.274C131.539 12.274 132.73 13.5468 132.73 15.4695C132.737 15.7317 132.722 15.9669 132.675 16.1465V16.1465ZM131.165 15.0818C131.165 14.0442 130.585 13.3116 129.533 13.3116C128.587 13.3116 127.842 14.0584 127.732 15.0818H131.165V15.0818ZM142.656 19.3006C140.49 19.3006 139.087 17.834 139.087 15.8429C139.087 13.7677 140.52 12.2882 142.78 12.2882C144.912 12.2882 146.348 13.685 146.348 15.7331C146.348 17.834 144.868 19.3006 142.656 19.3006ZM142.718 13.38C141.529 13.38 140.767 14.3891 140.767 15.8001C140.767 17.1841 141.545 18.1931 142.703 18.1931C143.861 18.1931 144.637 17.1142 144.637 15.7716C144.638 14.4033 143.876 13.38 142.718 13.38V13.38ZM155.2 19.1481H153.555V15.2884C153.555 14.0998 153.052 13.504 152.061 13.504C151.085 13.504 150.413 14.2651 150.413 15.1502V19.1481H148.768V14.3478C148.768 13.7534 148.751 13.1163 148.707 12.4251H150.155L150.232 13.4627H150.278C150.718 12.7443 151.62 12.2868 152.625 12.2868C154.179 12.2868 155.2 13.3658 155.2 15.1217V19.1481H155.2V19.1481ZM165.974 13.5468H164.162V16.8106C164.162 17.6416 164.482 18.0563 165.121 18.0563C165.412 18.0563 165.657 18.0278 165.853 17.9865L165.899 19.121C165.578 19.2323 165.149 19.2877 164.62 19.2877C163.322 19.2877 162.547 18.6378 162.547 16.9361V13.5468H161.466V12.4265H162.547V11.1951L164.162 10.7518V12.4251H165.974V13.5468ZM174.694 19.1481H173.046V15.3169C173.046 14.114 172.543 13.5054 171.552 13.5054C170.699 13.5054 169.907 14.0314 169.907 15.096V19.1481H168.259V9.34221H169.907V13.38H169.938C170.457 12.6474 171.205 12.2868 172.165 12.2868C173.734 12.2868 174.694 13.3928 174.694 15.1502V19.1481V19.1481ZM183.108 16.1465H178.167C178.198 17.4192 179.125 18.1376 180.499 18.1376C181.232 18.1376 181.902 18.0264 182.496 17.8197L182.753 18.8573C182.052 19.1338 181.228 19.2721 180.268 19.2721C177.949 19.2721 176.577 17.9437 176.577 15.8842C176.577 13.8233 177.982 12.274 180.082 12.274C181.973 12.274 183.163 13.5468 183.163 15.4695C183.169 15.7317 183.154 15.9669 183.108 16.1465V16.1465ZM181.598 15.0818C181.598 14.0442 181.02 13.3116 179.967 13.3116C179.02 13.3116 178.275 14.0584 178.167 15.0818H181.598V15.0818Z" fill="white"/>
</g>
<defs>
<linearGradient id="paint0_linear" x1="155.489" y1="57.1524" x2="155.489" y2="5.77711" gradientUnits="userSpaceOnUse">
<stop stop-color="#1A1A1A" stop-opacity="0.1"/>
<stop offset="0.123" stop-color="#212121" stop-opacity="0.151"/>
<stop offset="0.308" stop-color="#353535" stop-opacity="0.227"/>
<stop offset="0.532" stop-color="#575757" stop-opacity="0.318"/>
<stop offset="0.783" stop-color="#858585" stop-opacity="0.421"/>
<stop offset="1" stop-color="#B3B3B3" stop-opacity="0.51"/>
</linearGradient>
<clipPath id="clip0">
<rect width="212" height="57" fill="white"/>
</clipPath>
</defs>
</svg>
