<svg width="212" height="57" viewBox="0 0 212 57" fill="none" xmlns="http://www.w3.org/2000/svg">
<path fill-rule="evenodd" clip-rule="evenodd" d="M204.145 57H7.85474C3.52566 57 0 53.7875 0 49.875V7.125C0 3.19825 3.52566 0 7.85474 0H204.145C208.47 0 212 3.19825 212 7.125V49.875C212 53.7875 208.47 57 204.145 57Z" fill="black"/>
<path fill-rule="evenodd" clip-rule="evenodd" d="M204.145 1.14071C207.776 1.14071 210.748 3.8308 210.748 7.125V49.875C210.748 53.1692 207.796 55.8593 204.145 55.8593H7.85474C4.22378 55.8593 1.25192 53.1692 1.25192 49.875V7.125C1.25192 3.8308 4.20428 1.14071 7.85474 1.14071C7.85474 1.14071 204.145 1.14071 204.145 1.14071ZM204.145 0H7.85474C3.52566 0 0 3.21247 0 7.125V49.875C0 53.8017 3.52566 57 7.85474 57H204.145C208.47 57 212 53.8017 212 49.875V7.125C212 3.21247 208.47 0 204.145 0Z" fill="#A6A6A6"/>
<path d="M111.682 18.8555C110.267 18.8555 109.073 18.4041 108.129 17.5157C107.193 16.6522 106.671 15.4618 106.694 14.2464C106.694 12.9493 107.178 11.8513 108.129 10.9806C109.069 10.0922 110.263 9.64093 111.678 9.64093C113.079 9.64093 114.272 10.0922 115.231 10.9806C116.183 11.8797 116.667 12.9778 116.667 14.2464C116.651 15.547 116.167 16.6451 115.231 17.5122C114.292 18.4077 113.098 18.8555 111.682 18.8555ZM69.5577 18.8555C68.1732 18.8555 66.972 18.4113 65.9892 17.5335C65.0142 16.6593 64.5189 15.5541 64.5189 14.25C64.5189 12.9458 65.0142 11.8406 65.9892 10.9664C66.9525 10.0887 68.1537 9.64448 69.5577 9.64448C70.2442 9.64448 70.9111 9.76886 71.5507 10.0212C72.1786 10.2664 72.6895 10.6004 73.0678 11.0091L73.1614 11.1121L72.1045 12.0574L71.9953 11.9401C71.3986 11.2934 70.5991 10.9771 69.5421 10.9771C68.5983 10.9771 67.7754 11.2827 67.0968 11.8868C66.4143 12.4945 66.0672 13.2905 66.0672 14.2535C66.0672 15.2166 66.4143 16.0126 67.0968 16.6202C67.7754 17.2243 68.5983 17.53 69.5421 17.53C70.5484 17.53 71.3947 17.2243 72.0538 16.6202C72.4438 16.2649 72.6856 15.7674 72.7714 15.1384H69.3822V13.8093H74.2261L74.2456 13.9301C74.2807 14.154 74.3158 14.385 74.3158 14.5982C74.3158 15.8242 73.9102 16.8157 73.1068 17.5477C72.1942 18.4148 71.0008 18.8555 69.5577 18.8555ZM125.567 18.6671H124.073L119.498 11.997L119.537 13.1981V18.6636H118.043V9.83283H119.748L119.795 9.90034L124.096 16.1831L124.057 14.9856V9.83283H125.567V18.6671V18.6671ZM100.458 18.6671H98.9448V11.1619H96.32V9.83283H103.079V11.1619H100.454V18.6671H100.458ZM95.0876 18.6671H93.5783V9.83283H95.0876V18.6671ZM86.6049 18.6671H85.0956V11.1619H82.4709V9.83283H89.2297V11.1619H86.6049V18.6671ZM81.5154 18.6529H75.7277V9.83283H81.5154V11.1619H77.2409V13.5854H81.098V14.9003H77.2409V17.3238H81.5154V18.6529ZM109.237 16.6025C109.912 17.2172 110.731 17.5264 111.682 17.5264C112.661 17.5264 113.461 17.2243 114.128 16.6025C114.791 15.9983 115.126 15.2059 115.126 14.25C115.126 13.294 114.791 12.498 114.132 11.8975C113.457 11.2827 112.634 10.9735 111.686 10.9735C110.707 10.9735 109.908 11.2756 109.245 11.8975C108.582 12.5016 108.246 13.294 108.246 14.25C108.246 15.2059 108.578 16.0019 109.237 16.6025Z" fill="white"/>
<path fill-rule="evenodd" clip-rule="evenodd" d="M106.554 31.0018C102.868 31.0018 99.8808 33.5497 99.8808 37.0642C99.8808 40.5468 102.888 43.1267 106.554 43.1267C110.239 43.1267 113.227 40.561 113.227 37.0642C113.227 33.5497 110.239 31.0018 106.554 31.0018ZM106.554 40.7245C104.537 40.7245 102.802 39.2035 102.802 37.05C102.802 34.8645 104.541 33.3756 106.554 33.3756C108.57 33.3756 110.306 34.8645 110.306 37.05C110.31 39.2177 108.57 40.7245 106.554 40.7245ZM91.9948 31.0018C88.3093 31.0018 85.3218 33.5497 85.3218 37.0642C85.3218 40.5468 88.3288 43.1267 91.9948 43.1267C95.6804 43.1267 98.6678 40.561 98.6678 37.0642C98.6678 33.5497 95.6765 31.0018 91.9948 31.0018ZM91.9948 40.7245C89.9785 40.7245 88.243 39.2035 88.243 37.05C88.243 34.8645 89.9824 33.3756 91.9948 33.3756C94.0112 33.3756 95.7467 34.8645 95.7467 37.05C95.7467 39.2177 94.0112 40.7245 91.9948 40.7245ZM74.6707 32.8532V35.4189H81.4295C81.2228 36.8581 80.7002 37.9207 79.9007 38.6491C78.9101 39.5518 77.3813 40.5326 74.6863 40.5326C70.5327 40.5326 67.284 37.4764 67.284 33.6918C67.284 29.9072 70.5327 26.8511 74.6863 26.8511C76.9288 26.8511 78.563 27.6578 79.7759 28.6884L81.7727 26.8689C80.0879 25.3977 77.8454 24.2712 74.7019 24.2712C69.0039 24.2712 64.2224 28.5 64.2224 33.6776C64.2224 38.8695 69 43.0841 74.7019 43.0841C77.7791 43.0841 80.0879 42.1672 81.9131 40.4402C83.7735 38.7451 84.3624 36.3535 84.3624 34.4239C84.3624 33.8233 84.3117 33.2832 84.2064 32.8248H74.6668C74.6707 32.8212 74.6707 32.8532 74.6707 32.8532ZM145.531 34.8503C144.973 33.4893 143.289 30.9875 139.833 30.9875C136.409 30.9875 133.562 33.4431 133.562 37.05C133.562 40.4544 136.378 43.1125 140.165 43.1125C143.207 43.1125 144.977 41.4174 145.707 40.4224L143.448 39.0436C142.7 40.0564 141.658 40.7209 140.18 40.7209C138.686 40.7209 137.641 40.1026 136.947 38.8837L145.843 35.5255C145.843 35.5291 145.531 34.8503 145.531 34.8503ZM136.46 36.8759C136.389 34.5341 138.456 33.3436 139.934 33.3436C141.101 33.3436 142.072 33.866 142.403 34.6265L136.46 36.8759ZM129.233 42.75H132.154V24.9393H129.233V42.75ZM124.436 32.3486H124.33C123.671 31.6343 122.419 30.9875 120.82 30.9875C117.501 30.9875 114.444 33.6492 114.444 37.0678C114.444 40.4721 117.486 43.1018 120.82 43.1018C122.4 43.1018 123.671 42.4515 124.33 41.723H124.436V42.5937C124.436 44.9071 123.078 46.1544 120.89 46.1544C119.1 46.1544 117.989 44.9817 117.536 44.0009L114.997 44.9675C115.727 46.5666 117.673 48.546 120.887 48.546C124.311 48.546 127.212 46.7087 127.212 42.2276V31.35H124.451V32.3486C124.455 32.3486 124.436 32.3486 124.436 32.3486ZM121.082 40.7245C119.065 40.7245 117.38 39.1893 117.38 37.0678C117.38 34.9285 119.065 33.3791 121.082 33.3791C123.078 33.3791 124.627 34.9463 124.627 37.0678C124.646 39.1893 123.082 40.7245 121.082 40.7245ZM159.209 24.9393H152.224V42.75H155.145V36.0053H159.213C162.446 36.0053 165.624 33.8695 165.624 30.4794C165.624 27.0892 162.457 24.9393 159.209 24.9393ZM159.294 33.5177H155.141V27.4055H159.294C161.482 27.4055 162.719 29.0508 162.719 30.4616C162.719 31.8582 161.467 33.5177 159.294 33.5177ZM177.332 30.9698C175.211 30.9698 173.023 31.8262 172.118 33.6918L174.708 34.6726C175.265 33.6918 176.287 33.3578 177.367 33.3578C178.881 33.3578 180.409 34.1822 180.445 35.6534V35.8418C179.922 35.5717 178.775 35.1595 177.402 35.1595C174.606 35.1595 171.771 36.5525 171.771 39.1644C171.771 41.556 174.064 43.0912 176.619 43.0912C178.58 43.0912 179.661 42.2845 180.335 41.3499H180.441V42.7287H183.256V35.9058C183.256 32.7288 180.667 30.9698 177.332 30.9698ZM176.966 40.7245C176.01 40.7245 174.672 40.298 174.672 39.2035C174.672 37.8247 176.342 37.3023 177.765 37.3023C179.052 37.3023 179.661 37.5546 180.425 37.9029C180.214 39.502 178.732 40.7102 176.966 40.7245ZM193.529 31.35L190.175 39.0756H190.07L186.595 31.35H183.451L188.666 42.1495L185.694 48.1515H188.736L196.759 31.35H193.529ZM167.235 42.75H170.156V24.9393H167.235V42.75Z" fill="white"/>
<path fill-rule="evenodd" clip-rule="evenodd" d="M16.3179 10.7355C15.8655 11.1797 15.6042 11.8584 15.6042 12.7468V44.2567C15.6042 45.1451 15.8655 45.8239 16.3335 46.2503L16.4544 46.3463L35.8299 28.6919V28.2974L16.4388 10.6395L16.3179 10.7355Z" fill="url(#paint0_linear)"/>
<path fill-rule="evenodd" clip-rule="evenodd" d="M42.2768 34.5945L35.8143 28.7061V28.2939L42.2768 22.4055L42.4172 22.4837L50.0613 26.4425C52.2492 27.5654 52.2492 29.4204 50.0613 30.5575L42.4172 34.5163L42.2768 34.5945Z" fill="url(#paint1_linear)"/>
<path fill-rule="evenodd" clip-rule="evenodd" d="M42.4171 34.5163L35.8143 28.5L16.3179 46.2645C17.0316 46.961 18.2289 47.0392 19.5666 46.3605L42.4171 34.5163Z" fill="url(#paint2_linear)"/>
<path fill-rule="evenodd" clip-rule="evenodd" d="M42.4171 22.4837L19.5666 10.6573C18.2289 9.96079 17.0277 10.0567 16.3179 10.7532L35.8143 28.5L42.4171 22.4837Z" fill="url(#paint3_linear)"/>
<path opacity="0.2" fill-rule="evenodd" clip-rule="evenodd" d="M42.2768 34.3883L19.5823 46.1366C18.3147 46.8011 17.1837 46.7549 16.4544 46.1508L16.3335 46.2609L16.4544 46.3569C17.1837 46.9574 18.3147 47.0072 19.5823 46.3427L42.4328 34.5162L42.2768 34.3883Z" fill="black"/>
<path opacity="0.12" fill-rule="evenodd" clip-rule="evenodd" d="M50.0613 30.3514L42.2573 34.3883L42.3977 34.5163L50.0418 30.5575C51.1377 29.989 51.6759 29.2427 51.6759 28.5C51.6096 29.1823 51.0519 29.8291 50.0613 30.3514Z" fill="black"/>
<path opacity="0.25" fill-rule="evenodd" clip-rule="evenodd" d="M19.5667 10.8635L50.0613 26.6486C51.0519 27.1568 51.6096 27.8213 51.6954 28.5C51.6954 27.7573 51.1572 27.0111 50.0613 26.4425L19.5667 10.6573C17.3787 9.51663 15.6042 10.469 15.6042 12.7469V12.953C15.6042 10.6716 17.3787 9.73695 19.5667 10.8635Z" fill="white"/>
<defs>
<linearGradient id="paint0_linear" x1="34.092" y1="12.4069" x2="3.47081" y2="21.3614" gradientUnits="userSpaceOnUse">
<stop stop-color="#00A0FF"/>
<stop offset="0.00657" stop-color="#00A1FF"/>
<stop offset="0.2601" stop-color="#00BEFF"/>
<stop offset="0.5122" stop-color="#00D2FF"/>
<stop offset="0.7604" stop-color="#00DFFF"/>
<stop offset="1" stop-color="#00E3FF"/>
</linearGradient>
<linearGradient id="paint1_linear" x1="52.9146" y1="28.5001" x2="15.0724" y2="28.5001" gradientUnits="userSpaceOnUse">
<stop stop-color="#FFE000"/>
<stop offset="0.4087" stop-color="#FFBD00"/>
<stop offset="0.7754" stop-color="#FFA500"/>
<stop offset="1" stop-color="#FF9C00"/>
</linearGradient>
<linearGradient id="paint2_linear" x1="38.8268" y1="31.7737" x2="17.1823" y2="71.7548" gradientUnits="userSpaceOnUse">
<stop stop-color="#FF3A44"/>
<stop offset="1" stop-color="#C31162"/>
</linearGradient>
<linearGradient id="paint3_linear" x1="11.4085" y1="0.254786" x2="21.0642" y2="18.1096" gradientUnits="userSpaceOnUse">
<stop stop-color="#32A071"/>
<stop offset="0.0685" stop-color="#2DA771"/>
<stop offset="0.4762" stop-color="#15CF74"/>
<stop offset="0.8009" stop-color="#06E775"/>
<stop offset="1" stop-color="#00F076"/>
</linearGradient>
</defs>
</svg>
