<svg width="154" height="156" viewBox="0 0 154 156" fill="none" xmlns="http://www.w3.org/2000/svg">
<g filter="url(#filter0_d)">
<path d="M49.625 0H4V46.25H49.625V0ZM40.5 37H13.125V9.25H40.5V37Z" fill="black"/>
<path d="M31.375 18.5H22.25V27.75H31.375V18.5Z" fill="black"/>
<path d="M104.375 0V46.25H150V0H104.375ZM140.875 37H113.5V9.25H140.875V37Z" fill="black"/>
<path d="M131.75 18.5H122.625V27.75H131.75V18.5Z" fill="black"/>
<path d="M4 148H49.625V101.75H4V148ZM13.125 111H40.5V138.75H13.125V111Z" fill="black"/>
<path d="M31.375 120.25H22.25V129.5H31.375V120.25Z" fill="black"/>
<path d="M95.25 0H77V9.25H95.25V0Z" fill="black"/>
<path d="M77 37H86.125V27.75H95.25V18.5H67.875V9.25H58.75V18.5V23.125V27.75H77V37Z" fill="black"/>
<path d="M67.875 37H58.75V46.25H67.875V37Z" fill="black"/>
<path d="M95.25 46.25H86.125V55.5H58.75V64.75H95.25V46.25Z" fill="black"/>
<path d="M13.125 83.25H22.25V74H13.125V55.5H4V92.5H13.125V83.25Z" fill="black"/>
<path d="M31.375 55.5H22.25V64.75H31.375V55.5Z" fill="black"/>
<path d="M58.75 92.5H77V83.25H67.875V74H49.625V55.5H40.5V74H31.375V92.5H40.5V83.25H45.0625H49.625H58.75V92.5Z" fill="black"/>
<path d="M95.25 74H86.125V92.5H95.25V74Z" fill="black"/>
<path d="M86.125 101.75H58.75V111H77V138.75H58.75V148H86.125V138.75H104.375V129.5H86.125V101.75Z" fill="black"/>
<path d="M67.875 120.25H58.75V129.5H67.875V120.25Z" fill="black"/>
<path d="M104.375 101.75H95.25V120.25H104.375V101.75Z" fill="black"/>
<path d="M140.875 120.25H113.5V148H122.625V129.5H140.875V120.25Z" fill="black"/>
<path d="M150 138.75H131.75V148H150V138.75Z" fill="black"/>
<path d="M150 101.75H140.875V111H150V101.75Z" fill="black"/>
<path d="M113.5 111H122.625V83.25H104.375V92.5H113.5V111Z" fill="black"/>
<path d="M131.75 64.75H122.625V55.5H113.5V64.75H104.375V74H140.875V64.75H150V55.5H131.75V64.75Z" fill="black"/>
<path d="M150 83.25H131.75V92.5H150V83.25Z" fill="black"/>
<path d="M4 0V-1H3V0H4ZM150 0H151V-1H150V0ZM150 148V149H151V148H150ZM4 148H3V149H4V148ZM4 1H150V-1H4V1ZM149 0V148H151V0H149ZM150 147H4V149H150V147ZM5 148V0H3V148H5Z" fill="black"/>
</g>
<defs>
<filter id="filter0_d" x="0" y="0" width="154" height="156" filterUnits="userSpaceOnUse" color-interpolation-filters="sRGB">
<feFlood flood-opacity="0" result="BackgroundImageFix"/>
<feColorMatrix in="SourceAlpha" type="matrix" values="0 0 0 0 0 0 0 0 0 0 0 0 0 0 0 0 0 0 127 0"/>
<feOffset dy="4"/>
<feGaussianBlur stdDeviation="2"/>
<feColorMatrix type="matrix" values="0 0 0 0 0 0 0 0 0 0 0 0 0 0 0 0 0 0 0.25 0"/>
<feBlend mode="normal" in2="BackgroundImageFix" result="effect1_dropShadow"/>
<feBlend mode="normal" in="SourceGraphic" in2="effect1_dropShadow" result="shape"/>
</filter>
</defs>
</svg>
